<svg width="487" height="150" viewBox="0 0 487 150" fill="none" xmlns="http://www.w3.org/2000/svg">
<rect width="487" height="150" fill="white"/>
<path d="M109.729 3.9041H142.401V143.836H109.729V129.247C95.3451 145.89 77.8789 148.151 67.8101 148.151C24.6582 148.151 0 112.192 0 73.7671C0 28.1507 31.2338 0.205492 68.2211 0.205492C78.4954 0.205492 96.578 2.87675 109.729 20.137V3.9041ZM33.2886 74.3836C33.2886 98.6302 48.4945 118.973 72.1253 118.973C92.6738 118.973 111.784 103.973 111.784 74.7945C111.784 44.1781 92.8793 29.589 72.1253 29.589C48.4945 29.589 33.2886 49.5206 33.2886 74.3836ZM181.032 3.9041H213.705V16.4384C217.403 12.1233 222.746 7.3973 227.267 4.72607C233.637 1.02743 239.801 0 247.199 0C255.213 0 263.843 1.2329 272.884 6.57537L259.528 36.1644C252.13 31.4384 246.171 31.2329 242.884 31.2329C235.897 31.2329 228.911 32.2603 222.54 38.8356C213.499 48.4931 213.499 61.8493 213.499 71.0959V143.63H180.827V3.9041H181.032ZM293.844 3.9041H326.516V16.8493C337.407 3.49318 350.352 0.205492 361.038 0.205492C375.627 0.205492 389.394 7.19179 397.203 20.7534C408.916 4.1096 426.382 0.205492 438.711 0.205492C455.766 0.205492 470.561 8.21922 478.575 22.1918C481.246 26.9178 485.973 37.1918 485.973 57.5342V144.041H453.3V66.9863C453.3 51.3699 451.657 45 450.218 42.1233C448.163 36.7808 443.232 29.7945 431.519 29.7945C423.505 29.7945 416.519 34.1096 412.203 40.0685C406.45 48.0822 405.833 60 405.833 71.9178V144.041H373.161V66.9863C373.161 51.3699 371.517 45 370.079 42.1233C368.024 36.7808 363.092 29.7945 351.38 29.7945C343.366 29.7945 336.379 34.1096 332.064 40.0685C326.311 48.0822 325.694 60 325.694 71.9178V144.041H293.844V3.9041Z" fill="#0091BD"/>
</svg>
